<svg xmlns="http://www.w3.org/2000/svg" height="800" width="1200" version="1.1" id="svg2" xml:space="preserve" fill-rule="evenodd" viewBox="-29.5188 -14.62845 255.8296 87.7707"><defs id="defs4"><style id="style6" type="text/css">.fil0{fill:#02abca}.fil1{fill:#8b8b8b;fill-rule:nonzero}</style></defs><g transform="translate(-5.9665 -5.7625)" id="Capa_x0020_1"><g id="_56610944"><path d="M165.011 25.954c0 13.4272 15.875 11.5068 15.875 2.1167V5.8457h-15.875z" class="fil0" id="_56666168" fill="#009ac7" fill-opacity="1" stroke="none"/><path d="M143.139 40.0651c0 6.6341 4.5822 10.5833 11.2889 10.5833h38.1c5.6587 0 10.2306-3.9072 10.2306-9.525V13.254c0-3.3857-2.5233-7.0555-5.6444-7.0555h-8.8195V29.129c0 17.4161-30.3389 17.282-30.3389.3528V5.8457h-6.7028c-4.3638 0-8.1139 2.7649-8.1139 7.0555z" class="fil0" id="_56603080" fill="#009ac7" fill-opacity="1" stroke="none"/><path d="M90.4019 12.4334c0 3.6214 3.0496 6.671 6.8616 6.671 4.0026 0 7.1475-2.9544 7.1475-6.671 0-3.7167-3.1449-6.6709-7.1475-6.6709-3.812 0-6.8616 2.9542-6.8616 6.6709z" class="fil1" id="_56604928" fill="#8b8b8b" fill-opacity="1" fill-rule="nonzero" stroke="none"/><path class="fil1" id="_56605920" fill="#8b8b8b" fill-opacity="1" fill-rule="nonzero" stroke="none" d="M91.5455 25.68v38.2151h11.8175V25.68z"/><path d="M114.322 12.4334c0 3.6214 3.1449 6.671 6.9569 6.671 3.9072 0 7.0521-2.9544 7.0521-6.671 0-3.7167-3.1449-6.6709-7.0521-6.6709-3.812 0-6.9569 2.9542-6.9569 6.6709z" class="fil1" id="_56605848" fill="#8b8b8b" fill-opacity="1" fill-rule="nonzero" stroke="none"/><path class="fil1" id="_56607936" fill="#8b8b8b" fill-opacity="1" fill-rule="nonzero" stroke="none" d="M115.466 25.68v38.2151h11.817V25.68z"/><path d="M72.7715 9.0026L62.4791 49.505s-7.9098-30.4006-9.244-34.7845c-1.2389-4.2884-3.9073-6.1944-7.624-6.1944-3.8119 0-6.385 1.906-7.7193 6.1944-1.2388 4.3839-9.1487 34.7845-9.1487 34.7845L18.3555 9.0026H5.9665S17.879 52.1733 19.4991 57.2242c1.2388 3.9073 4.2885 7.0521 8.6722 7.0521 5.1461 0 7.5287-3.7166 8.5769-7.0521 1.1436-3.4308 8.8629-31.9254 8.8629-31.9254s7.7192 28.4946 8.7676 31.9254c1.1436 3.3355 3.526 7.0521 8.577 7.0521 4.479 0 7.4333-3.1448 8.7675-7.0521 1.62-5.0509 13.5326-48.2216 13.5326-48.2216z" class="fil1" id="_56607472" fill="#8b8b8b" fill-opacity="1" fill-rule="nonzero" stroke="none"/></g></g></svg>